<mxfile host="app.diagrams.net" modified="2024-03-27T17:28:29.721Z" agent="Mozilla/5.0 (Windows NT 10.0; Win64; x64; rv:124.0) Gecko/20100101 Firefox/124.0" etag="ZC8R93dPVSMqeZV-dG9H" version="24.2.0" type="device">
  <diagram id="C5RBs43oDa-KdzZeNtuy" name="Page-1">
    <mxGraphModel dx="4613" dy="5379" grid="1" gridSize="10" guides="1" tooltips="1" connect="1" arrows="1" fold="1" page="1" pageScale="1" pageWidth="3300" pageHeight="4681" math="0" shadow="0">
      <root>
        <mxCell id="WIyWlLk6GJQsqaUBKTNV-0" />
        <mxCell id="WIyWlLk6GJQsqaUBKTNV-1" parent="WIyWlLk6GJQsqaUBKTNV-0" />
        <mxCell id="jy5TOX9gL-A7DgwTzjGL-0" value="Pieza" style="swimlane;fontStyle=2;align=center;verticalAlign=top;childLayout=stackLayout;horizontal=1;startSize=26;horizontalStack=0;resizeParent=1;resizeLast=0;collapsible=1;marginBottom=0;rounded=0;shadow=0;strokeWidth=1;" parent="WIyWlLk6GJQsqaUBKTNV-1" vertex="1">
          <mxGeometry x="-640" y="440" width="170" height="260" as="geometry">
            <mxRectangle x="230" y="140" width="160" height="26" as="alternateBounds" />
          </mxGeometry>
        </mxCell>
        <mxCell id="jy5TOX9gL-A7DgwTzjGL-1" value="-tipo: Arraylist &lt;tipos&gt;" style="text;align=left;verticalAlign=top;spacingLeft=4;spacingRight=4;overflow=hidden;rotatable=0;points=[[0,0.5],[1,0.5]];portConstraint=eastwest;" parent="jy5TOX9gL-A7DgwTzjGL-0" vertex="1">
          <mxGeometry y="26" width="170" height="26" as="geometry" />
        </mxCell>
        <mxCell id="jy5TOX9gL-A7DgwTzjGL-2" value="-disponibilidad: Disponibilidad" style="text;align=left;verticalAlign=top;spacingLeft=4;spacingRight=4;overflow=hidden;rotatable=0;points=[[0,0.5],[1,0.5]];portConstraint=eastwest;rounded=0;shadow=0;html=0;" parent="jy5TOX9gL-A7DgwTzjGL-0" vertex="1">
          <mxGeometry y="52" width="170" height="26" as="geometry" />
        </mxCell>
        <mxCell id="jy5TOX9gL-A7DgwTzjGL-5" value="-peso: String" style="text;align=left;verticalAlign=top;spacingLeft=4;spacingRight=4;overflow=hidden;rotatable=0;points=[[0,0.5],[1,0.5]];portConstraint=eastwest;" parent="jy5TOX9gL-A7DgwTzjGL-0" vertex="1">
          <mxGeometry y="78" width="170" height="26" as="geometry" />
        </mxCell>
        <mxCell id="jy5TOX9gL-A7DgwTzjGL-6" value="-electricidad: Boolean" style="text;align=left;verticalAlign=top;spacingLeft=4;spacingRight=4;overflow=hidden;rotatable=0;points=[[0,0.5],[1,0.5]];portConstraint=eastwest;rounded=0;shadow=0;html=0;" parent="jy5TOX9gL-A7DgwTzjGL-0" vertex="1">
          <mxGeometry y="104" width="170" height="26" as="geometry" />
        </mxCell>
        <mxCell id="aHk7hMUjukKhdwWyUS7x-12" value="-titulo: String" style="text;align=left;verticalAlign=top;spacingLeft=4;spacingRight=4;overflow=hidden;rotatable=0;points=[[0,0.5],[1,0.5]];portConstraint=eastwest;rounded=0;shadow=0;html=0;" parent="jy5TOX9gL-A7DgwTzjGL-0" vertex="1">
          <mxGeometry y="130" width="170" height="26" as="geometry" />
        </mxCell>
        <mxCell id="aHk7hMUjukKhdwWyUS7x-11" value="-añoCreacion: String" style="text;align=left;verticalAlign=top;spacingLeft=4;spacingRight=4;overflow=hidden;rotatable=0;points=[[0,0.5],[1,0.5]];portConstraint=eastwest;rounded=0;shadow=0;html=0;" parent="jy5TOX9gL-A7DgwTzjGL-0" vertex="1">
          <mxGeometry y="156" width="170" height="26" as="geometry" />
        </mxCell>
        <mxCell id="jy5TOX9gL-A7DgwTzjGL-14" value="-lugarCreacion: String " style="text;align=left;verticalAlign=top;spacingLeft=4;spacingRight=4;overflow=hidden;rotatable=0;points=[[0,0.5],[1,0.5]];portConstraint=eastwest;rounded=0;shadow=0;html=0;" parent="jy5TOX9gL-A7DgwTzjGL-0" vertex="1">
          <mxGeometry y="182" width="170" height="26" as="geometry" />
        </mxCell>
        <mxCell id="aHk7hMUjukKhdwWyUS7x-5" value="-autor: String " style="text;align=left;verticalAlign=top;spacingLeft=4;spacingRight=4;overflow=hidden;rotatable=0;points=[[0,0.5],[1,0.5]];portConstraint=eastwest;rounded=0;shadow=0;html=0;" parent="jy5TOX9gL-A7DgwTzjGL-0" vertex="1">
          <mxGeometry y="208" width="170" height="34" as="geometry" />
        </mxCell>
        <mxCell id="jy5TOX9gL-A7DgwTzjGL-4" value="" style="line;html=1;strokeWidth=1;align=left;verticalAlign=middle;spacingTop=-1;spacingLeft=3;spacingRight=3;rotatable=0;labelPosition=right;points=[];portConstraint=eastwest;" parent="jy5TOX9gL-A7DgwTzjGL-0" vertex="1">
          <mxGeometry y="242" width="170" height="8" as="geometry" />
        </mxCell>
        <mxCell id="jy5TOX9gL-A7DgwTzjGL-7" value="Disponibilidad" style="swimlane;fontStyle=2;align=center;verticalAlign=top;childLayout=stackLayout;horizontal=1;startSize=26;horizontalStack=0;resizeParent=1;resizeLast=0;collapsible=1;marginBottom=0;rounded=0;shadow=0;strokeWidth=1;" parent="WIyWlLk6GJQsqaUBKTNV-1" vertex="1">
          <mxGeometry x="-540" y="280" width="160" height="100" as="geometry">
            <mxRectangle x="230" y="140" width="160" height="26" as="alternateBounds" />
          </mxGeometry>
        </mxCell>
        <mxCell id="jy5TOX9gL-A7DgwTzjGL-8" value="-idPieza: String" style="text;align=left;verticalAlign=top;spacingLeft=4;spacingRight=4;overflow=hidden;rotatable=0;points=[[0,0.5],[1,0.5]];portConstraint=eastwest;" parent="jy5TOX9gL-A7DgwTzjGL-7" vertex="1">
          <mxGeometry y="26" width="160" height="26" as="geometry" />
        </mxCell>
        <mxCell id="aHk7hMUjukKhdwWyUS7x-139" value="-disponibilidad: Boolean" style="text;align=left;verticalAlign=top;spacingLeft=4;spacingRight=4;overflow=hidden;rotatable=0;points=[[0,0.5],[1,0.5]];portConstraint=eastwest;" parent="jy5TOX9gL-A7DgwTzjGL-7" vertex="1">
          <mxGeometry y="52" width="160" height="26" as="geometry" />
        </mxCell>
        <mxCell id="jy5TOX9gL-A7DgwTzjGL-13" value="" style="line;html=1;strokeWidth=1;align=left;verticalAlign=middle;spacingTop=-1;spacingLeft=3;spacingRight=3;rotatable=0;labelPosition=right;points=[];portConstraint=eastwest;" parent="jy5TOX9gL-A7DgwTzjGL-7" vertex="1">
          <mxGeometry y="78" width="160" height="8" as="geometry" />
        </mxCell>
        <mxCell id="jy5TOX9gL-A7DgwTzjGL-15" value="Piezas" style="endArrow=block;endFill=1;html=1;edgeStyle=orthogonalEdgeStyle;align=left;verticalAlign=top;rounded=0;exitX=0.5;exitY=1;exitDx=0;exitDy=0;entryX=0.75;entryY=0;entryDx=0;entryDy=0;" parent="WIyWlLk6GJQsqaUBKTNV-1" edge="1">
          <mxGeometry x="-0.7288" y="12" relative="1" as="geometry">
            <mxPoint x="-470" y="378" as="sourcePoint" />
            <mxPoint x="-542.5" y="438" as="targetPoint" />
            <mxPoint as="offset" />
            <Array as="points">
              <mxPoint x="-470" y="400" />
              <mxPoint x="-542" y="400" />
            </Array>
          </mxGeometry>
        </mxCell>
        <mxCell id="jy5TOX9gL-A7DgwTzjGL-37" value="Subasta" style="swimlane;fontStyle=2;align=center;verticalAlign=top;childLayout=stackLayout;horizontal=1;startSize=26;horizontalStack=0;resizeParent=1;resizeLast=0;collapsible=1;marginBottom=0;rounded=0;shadow=0;strokeWidth=1;" parent="WIyWlLk6GJQsqaUBKTNV-1" vertex="1">
          <mxGeometry x="510" y="365" width="220" height="190" as="geometry">
            <mxRectangle x="230" y="140" width="160" height="26" as="alternateBounds" />
          </mxGeometry>
        </mxCell>
        <mxCell id="jy5TOX9gL-A7DgwTzjGL-38" value="-piezasDisponibles: Arraylist &lt;piezasDis&gt;" style="text;align=left;verticalAlign=top;spacingLeft=4;spacingRight=4;overflow=hidden;rotatable=0;points=[[0,0.5],[1,0.5]];portConstraint=eastwest;" parent="jy5TOX9gL-A7DgwTzjGL-37" vertex="1">
          <mxGeometry y="26" width="220" height="26" as="geometry" />
        </mxCell>
        <mxCell id="jy5TOX9gL-A7DgwTzjGL-39" value="-valorFijo: Integer" style="text;align=left;verticalAlign=top;spacingLeft=4;spacingRight=4;overflow=hidden;rotatable=0;points=[[0,0.5],[1,0.5]];portConstraint=eastwest;rounded=0;shadow=0;html=0;" parent="jy5TOX9gL-A7DgwTzjGL-37" vertex="1">
          <mxGeometry y="52" width="220" height="26" as="geometry" />
        </mxCell>
        <mxCell id="jy5TOX9gL-A7DgwTzjGL-40" value="-valorInicial: Integer" style="text;align=left;verticalAlign=top;spacingLeft=4;spacingRight=4;overflow=hidden;rotatable=0;points=[[0,0.5],[1,0.5]];portConstraint=eastwest;" parent="jy5TOX9gL-A7DgwTzjGL-37" vertex="1">
          <mxGeometry y="78" width="220" height="26" as="geometry" />
        </mxCell>
        <mxCell id="DRnetqcQ-tTifSEXMpZS-0" value="-Pieza: &lt;Pieza&gt;" style="text;align=left;verticalAlign=top;spacingLeft=4;spacingRight=4;overflow=hidden;rotatable=0;points=[[0,0.5],[1,0.5]];portConstraint=eastwest;" parent="jy5TOX9gL-A7DgwTzjGL-37" vertex="1">
          <mxGeometry y="104" width="220" height="26" as="geometry" />
        </mxCell>
        <mxCell id="DRnetqcQ-tTifSEXMpZS-1" value="-clientesVerficados: Arraylist &lt;clientesVef&gt;" style="text;align=left;verticalAlign=top;spacingLeft=4;spacingRight=4;overflow=hidden;rotatable=0;points=[[0,0.5],[1,0.5]];portConstraint=eastwest;" parent="jy5TOX9gL-A7DgwTzjGL-37" vertex="1">
          <mxGeometry y="130" width="220" height="26" as="geometry" />
        </mxCell>
        <mxCell id="jy5TOX9gL-A7DgwTzjGL-41" value="" style="line;html=1;strokeWidth=1;align=left;verticalAlign=middle;spacingTop=-1;spacingLeft=3;spacingRight=3;rotatable=0;labelPosition=right;points=[];portConstraint=eastwest;" parent="jy5TOX9gL-A7DgwTzjGL-37" vertex="1">
          <mxGeometry y="156" width="220" height="8" as="geometry" />
        </mxCell>
        <mxCell id="DRnetqcQ-tTifSEXMpZS-11" value="Medio DePago" style="swimlane;fontStyle=2;align=center;verticalAlign=top;childLayout=stackLayout;horizontal=1;startSize=26;horizontalStack=0;resizeParent=1;resizeLast=0;collapsible=1;marginBottom=0;rounded=0;shadow=0;strokeWidth=1;" parent="WIyWlLk6GJQsqaUBKTNV-1" vertex="1">
          <mxGeometry x="90" y="870" width="190" height="140" as="geometry">
            <mxRectangle x="230" y="140" width="160" height="26" as="alternateBounds" />
          </mxGeometry>
        </mxCell>
        <mxCell id="DRnetqcQ-tTifSEXMpZS-14" value="-medioDisponibles: Arraylist &lt;medioDisponibles&gt;" style="text;align=left;verticalAlign=top;spacingLeft=4;spacingRight=4;overflow=hidden;rotatable=0;points=[[0,0.5],[1,0.5]];portConstraint=eastwest;" parent="DRnetqcQ-tTifSEXMpZS-11" vertex="1">
          <mxGeometry y="26" width="190" height="26" as="geometry" />
        </mxCell>
        <mxCell id="DRnetqcQ-tTifSEXMpZS-15" value="-estado: boolean" style="text;align=left;verticalAlign=top;spacingLeft=4;spacingRight=4;overflow=hidden;rotatable=0;points=[[0,0.5],[1,0.5]];portConstraint=eastwest;" parent="DRnetqcQ-tTifSEXMpZS-11" vertex="1">
          <mxGeometry y="52" width="190" height="26" as="geometry" />
        </mxCell>
        <mxCell id="DRnetqcQ-tTifSEXMpZS-16" value="" style="line;html=1;strokeWidth=1;align=left;verticalAlign=middle;spacingTop=-1;spacingLeft=3;spacingRight=3;rotatable=0;labelPosition=right;points=[];portConstraint=eastwest;" parent="DRnetqcQ-tTifSEXMpZS-11" vertex="1">
          <mxGeometry y="78" width="190" height="8" as="geometry" />
        </mxCell>
        <mxCell id="DRnetqcQ-tTifSEXMpZS-21" value="Inventario" style="swimlane;fontStyle=2;align=center;verticalAlign=top;childLayout=stackLayout;horizontal=1;startSize=26;horizontalStack=0;resizeParent=1;resizeLast=0;collapsible=1;marginBottom=0;rounded=0;shadow=0;strokeWidth=1;" parent="WIyWlLk6GJQsqaUBKTNV-1" vertex="1">
          <mxGeometry x="-940" y="390" width="230" height="180" as="geometry">
            <mxRectangle x="230" y="140" width="160" height="26" as="alternateBounds" />
          </mxGeometry>
        </mxCell>
        <mxCell id="DRnetqcQ-tTifSEXMpZS-22" value="-pieza: &lt;Pieza&gt;" style="text;align=left;verticalAlign=top;spacingLeft=4;spacingRight=4;overflow=hidden;rotatable=0;points=[[0,0.5],[1,0.5]];portConstraint=eastwest;" parent="DRnetqcQ-tTifSEXMpZS-21" vertex="1">
          <mxGeometry y="26" width="230" height="26" as="geometry" />
        </mxCell>
        <mxCell id="nKCrA-lN9NPPw2SbhEwQ-1" value="-registroPiezas:  HashMap&lt;String, data&gt;" style="text;align=left;verticalAlign=top;spacingLeft=4;spacingRight=4;overflow=hidden;rotatable=0;points=[[0,0.5],[1,0.5]];portConstraint=eastwest;" parent="DRnetqcQ-tTifSEXMpZS-21" vertex="1">
          <mxGeometry y="52" width="230" height="28" as="geometry" />
        </mxCell>
        <mxCell id="aHk7hMUjukKhdwWyUS7x-43" value="-piezas:  Arraylist &lt;Piezas&gt;" style="text;align=left;verticalAlign=top;spacingLeft=4;spacingRight=4;overflow=hidden;rotatable=0;points=[[0,0.5],[1,0.5]];portConstraint=eastwest;" parent="DRnetqcQ-tTifSEXMpZS-21" vertex="1">
          <mxGeometry y="80" width="230" height="28" as="geometry" />
        </mxCell>
        <mxCell id="DRnetqcQ-tTifSEXMpZS-24" value="-consignacion: &lt;Consignacion&gt;" style="text;align=left;verticalAlign=top;spacingLeft=4;spacingRight=4;overflow=hidden;rotatable=0;points=[[0,0.5],[1,0.5]];portConstraint=eastwest;" parent="DRnetqcQ-tTifSEXMpZS-21" vertex="1">
          <mxGeometry y="108" width="230" height="26" as="geometry" />
        </mxCell>
        <mxCell id="DRnetqcQ-tTifSEXMpZS-23" value="" style="line;html=1;strokeWidth=1;align=left;verticalAlign=middle;spacingTop=-1;spacingLeft=3;spacingRight=3;rotatable=0;labelPosition=right;points=[];portConstraint=eastwest;" parent="DRnetqcQ-tTifSEXMpZS-21" vertex="1">
          <mxGeometry y="134" width="230" height="24" as="geometry" />
        </mxCell>
        <mxCell id="XEJke8gN8GgJqABwDWAg-2" value="Pagos" style="swimlane;fontStyle=2;align=center;verticalAlign=top;childLayout=stackLayout;horizontal=1;startSize=26;horizontalStack=0;resizeParent=1;resizeLast=0;collapsible=1;marginBottom=0;rounded=0;shadow=0;strokeWidth=1;" parent="WIyWlLk6GJQsqaUBKTNV-1" vertex="1">
          <mxGeometry x="680" y="660" width="190" height="150" as="geometry">
            <mxRectangle x="230" y="140" width="160" height="26" as="alternateBounds" />
          </mxGeometry>
        </mxCell>
        <mxCell id="XEJke8gN8GgJqABwDWAg-3" value="-total: int" style="text;align=left;verticalAlign=top;spacingLeft=4;spacingRight=4;overflow=hidden;rotatable=0;points=[[0,0.5],[1,0.5]];portConstraint=eastwest;" parent="XEJke8gN8GgJqABwDWAg-2" vertex="1">
          <mxGeometry y="26" width="190" height="26" as="geometry" />
        </mxCell>
        <mxCell id="aHk7hMUjukKhdwWyUS7x-94" value="- Producto: int" style="text;align=left;verticalAlign=top;spacingLeft=4;spacingRight=4;overflow=hidden;rotatable=0;points=[[0,0.5],[1,0.5]];portConstraint=eastwest;" parent="XEJke8gN8GgJqABwDWAg-2" vertex="1">
          <mxGeometry y="52" width="190" height="26" as="geometry" />
        </mxCell>
        <mxCell id="aHk7hMUjukKhdwWyUS7x-95" value="- medioDePago: &lt;MedioDePago&gt;" style="text;align=left;verticalAlign=top;spacingLeft=4;spacingRight=4;overflow=hidden;rotatable=0;points=[[0,0.5],[1,0.5]];portConstraint=eastwest;" parent="XEJke8gN8GgJqABwDWAg-2" vertex="1">
          <mxGeometry y="78" width="190" height="26" as="geometry" />
        </mxCell>
        <mxCell id="XEJke8gN8GgJqABwDWAg-9" value="" style="line;html=1;strokeWidth=1;align=left;verticalAlign=middle;spacingTop=-1;spacingLeft=3;spacingRight=3;rotatable=0;labelPosition=right;points=[];portConstraint=eastwest;" parent="XEJke8gN8GgJqABwDWAg-2" vertex="1">
          <mxGeometry y="104" width="190" height="28" as="geometry" />
        </mxCell>
        <mxCell id="XEJke8gN8GgJqABwDWAg-68" value="Administrador" style="swimlane;fontStyle=2;align=center;verticalAlign=top;childLayout=stackLayout;horizontal=1;startSize=26;horizontalStack=0;resizeParent=1;resizeLast=0;collapsible=1;marginBottom=0;rounded=0;shadow=0;strokeWidth=1;" parent="WIyWlLk6GJQsqaUBKTNV-1" vertex="1">
          <mxGeometry x="-720" y="40" width="160" height="100" as="geometry">
            <mxRectangle x="230" y="140" width="160" height="26" as="alternateBounds" />
          </mxGeometry>
        </mxCell>
        <mxCell id="XEJke8gN8GgJqABwDWAg-69" value="-nombre: int" style="text;align=left;verticalAlign=top;spacingLeft=4;spacingRight=4;overflow=hidden;rotatable=0;points=[[0,0.5],[1,0.5]];portConstraint=eastwest;" parent="XEJke8gN8GgJqABwDWAg-68" vertex="1">
          <mxGeometry y="26" width="160" height="26" as="geometry" />
        </mxCell>
        <mxCell id="XEJke8gN8GgJqABwDWAg-70" value="-id: String" style="text;align=left;verticalAlign=top;spacingLeft=4;spacingRight=4;overflow=hidden;rotatable=0;points=[[0,0.5],[1,0.5]];portConstraint=eastwest;" parent="XEJke8gN8GgJqABwDWAg-68" vertex="1">
          <mxGeometry y="52" width="160" height="26" as="geometry" />
        </mxCell>
        <mxCell id="XEJke8gN8GgJqABwDWAg-71" value="" style="line;html=1;strokeWidth=1;align=left;verticalAlign=middle;spacingTop=-1;spacingLeft=3;spacingRight=3;rotatable=0;labelPosition=right;points=[];portConstraint=eastwest;" parent="XEJke8gN8GgJqABwDWAg-68" vertex="1">
          <mxGeometry y="78" width="160" height="8" as="geometry" />
        </mxCell>
        <mxCell id="XEJke8gN8GgJqABwDWAg-72" value="Comprador" style="swimlane;fontStyle=2;align=center;verticalAlign=top;childLayout=stackLayout;horizontal=1;startSize=26;horizontalStack=0;resizeParent=1;resizeLast=0;collapsible=1;marginBottom=0;rounded=0;shadow=0;strokeWidth=1;" parent="WIyWlLk6GJQsqaUBKTNV-1" vertex="1">
          <mxGeometry x="-110" y="226" width="190" height="164" as="geometry">
            <mxRectangle x="230" y="140" width="160" height="26" as="alternateBounds" />
          </mxGeometry>
        </mxCell>
        <mxCell id="7eufnPfeV6qqJb5Z0_9X-1" value="-nombre: int" style="text;align=left;verticalAlign=top;spacingLeft=4;spacingRight=4;overflow=hidden;rotatable=0;points=[[0,0.5],[1,0.5]];portConstraint=eastwest;" parent="XEJke8gN8GgJqABwDWAg-72" vertex="1">
          <mxGeometry y="26" width="190" height="26" as="geometry" />
        </mxCell>
        <mxCell id="XEJke8gN8GgJqABwDWAg-73" value="-id: String" style="text;align=left;verticalAlign=top;spacingLeft=4;spacingRight=4;overflow=hidden;rotatable=0;points=[[0,0.5],[1,0.5]];portConstraint=eastwest;" parent="XEJke8gN8GgJqABwDWAg-72" vertex="1">
          <mxGeometry y="52" width="190" height="26" as="geometry" />
        </mxCell>
        <mxCell id="aHk7hMUjukKhdwWyUS7x-147" value="-valorMaxCompras: Integer" style="text;align=left;verticalAlign=top;spacingLeft=4;spacingRight=4;overflow=hidden;rotatable=0;points=[[0,0.5],[1,0.5]];portConstraint=eastwest;" parent="XEJke8gN8GgJqABwDWAg-72" vertex="1">
          <mxGeometry y="78" width="190" height="26" as="geometry" />
        </mxCell>
        <mxCell id="XEJke8gN8GgJqABwDWAg-74" value="-Verificacion: Boolean" style="text;align=left;verticalAlign=top;spacingLeft=4;spacingRight=4;overflow=hidden;rotatable=0;points=[[0,0.5],[1,0.5]];portConstraint=eastwest;" parent="XEJke8gN8GgJqABwDWAg-72" vertex="1">
          <mxGeometry y="104" width="190" height="26" as="geometry" />
        </mxCell>
        <mxCell id="XEJke8gN8GgJqABwDWAg-75" value="" style="line;html=1;strokeWidth=1;align=left;verticalAlign=middle;spacingTop=-1;spacingLeft=3;spacingRight=3;rotatable=0;labelPosition=right;points=[];portConstraint=eastwest;" parent="XEJke8gN8GgJqABwDWAg-72" vertex="1">
          <mxGeometry y="130" width="190" height="4" as="geometry" />
        </mxCell>
        <mxCell id="XEJke8gN8GgJqABwDWAg-90" value="disponibilidad" style="text;html=1;strokeColor=none;fillColor=none;align=center;verticalAlign=middle;whiteSpace=wrap;rounded=0;" parent="WIyWlLk6GJQsqaUBKTNV-1" vertex="1">
          <mxGeometry x="-760" y="350" width="60" height="30" as="geometry" />
        </mxCell>
        <mxCell id="nKCrA-lN9NPPw2SbhEwQ-2" value="" style="endArrow=block;endFill=1;html=1;edgeStyle=orthogonalEdgeStyle;align=left;verticalAlign=top;rounded=0;exitX=0;exitY=0.5;exitDx=0;exitDy=0;entryX=0.5;entryY=0;entryDx=0;entryDy=0;" parent="WIyWlLk6GJQsqaUBKTNV-1" source="jy5TOX9gL-A7DgwTzjGL-8" target="DRnetqcQ-tTifSEXMpZS-21" edge="1">
          <mxGeometry x="0.0323" y="17" relative="1" as="geometry">
            <mxPoint x="-470" y="420" as="sourcePoint" />
            <mxPoint x="-310" y="420" as="targetPoint" />
            <mxPoint x="5" y="-1" as="offset" />
          </mxGeometry>
        </mxCell>
        <mxCell id="nKCrA-lN9NPPw2SbhEwQ-3" value="1" style="edgeLabel;resizable=0;html=1;align=left;verticalAlign=bottom;" parent="nKCrA-lN9NPPw2SbhEwQ-2" connectable="0" vertex="1">
          <mxGeometry x="-1" relative="1" as="geometry">
            <mxPoint x="-280" y="61" as="offset" />
          </mxGeometry>
        </mxCell>
        <mxCell id="nKCrA-lN9NPPw2SbhEwQ-10" value="" style="endArrow=block;endFill=1;html=1;edgeStyle=orthogonalEdgeStyle;align=left;verticalAlign=top;rounded=0;entryX=0;entryY=0.5;entryDx=0;entryDy=0;exitX=1;exitY=0.5;exitDx=0;exitDy=0;" parent="WIyWlLk6GJQsqaUBKTNV-1" source="aHk7hMUjukKhdwWyUS7x-131" target="jy5TOX9gL-A7DgwTzjGL-39" edge="1">
          <mxGeometry x="-1" relative="1" as="geometry">
            <mxPoint x="390" y="425.04761904761835" as="sourcePoint" />
            <mxPoint x="222.5" y="300" as="targetPoint" />
          </mxGeometry>
        </mxCell>
        <mxCell id="nKCrA-lN9NPPw2SbhEwQ-16" value="disponibilidad" style="endArrow=block;endFill=1;html=1;edgeStyle=orthogonalEdgeStyle;align=left;verticalAlign=top;rounded=0;exitX=-0.007;exitY=0.863;exitDx=0;exitDy=0;exitPerimeter=0;" parent="WIyWlLk6GJQsqaUBKTNV-1" source="aHk7hMUjukKhdwWyUS7x-131" edge="1">
          <mxGeometry x="-0.2437" relative="1" as="geometry">
            <mxPoint x="116.21999999999935" y="436.4399999999996" as="sourcePoint" />
            <mxPoint x="-380" y="350" as="targetPoint" />
            <mxPoint as="offset" />
            <Array as="points">
              <mxPoint x="30" y="439" />
              <mxPoint x="-180" y="440" />
              <mxPoint x="-180" y="350" />
            </Array>
          </mxGeometry>
        </mxCell>
        <mxCell id="nKCrA-lN9NPPw2SbhEwQ-17" value="1" style="edgeLabel;resizable=0;html=1;align=left;verticalAlign=bottom;" parent="nKCrA-lN9NPPw2SbhEwQ-16" connectable="0" vertex="1">
          <mxGeometry x="-1" relative="1" as="geometry">
            <mxPoint x="-22" as="offset" />
          </mxGeometry>
        </mxCell>
        <mxCell id="nKCrA-lN9NPPw2SbhEwQ-29" value="Galeria y Casa de Subastas" style="swimlane;fontStyle=2;align=center;verticalAlign=top;childLayout=stackLayout;horizontal=1;startSize=26;horizontalStack=0;resizeParent=1;resizeLast=0;collapsible=1;marginBottom=0;rounded=0;shadow=0;strokeWidth=1;" parent="WIyWlLk6GJQsqaUBKTNV-1" vertex="1">
          <mxGeometry x="-100" y="-10" width="300" height="220" as="geometry">
            <mxRectangle x="230" y="140" width="160" height="26" as="alternateBounds" />
          </mxGeometry>
        </mxCell>
        <mxCell id="nKCrA-lN9NPPw2SbhEwQ-45" value="-Inventario: Arraylist &lt;Inventario&gt;" style="text;align=left;verticalAlign=top;spacingLeft=4;spacingRight=4;overflow=hidden;rotatable=0;points=[[0,0.5],[1,0.5]];portConstraint=eastwest;" parent="nKCrA-lN9NPPw2SbhEwQ-29" vertex="1">
          <mxGeometry y="26" width="300" height="26" as="geometry" />
        </mxCell>
        <mxCell id="nKCrA-lN9NPPw2SbhEwQ-46" value="-Administradores: Arraylist &lt;Administrador&gt;" style="text;align=left;verticalAlign=top;spacingLeft=4;spacingRight=4;overflow=hidden;rotatable=0;points=[[0,0.5],[1,0.5]];portConstraint=eastwest;" parent="nKCrA-lN9NPPw2SbhEwQ-29" vertex="1">
          <mxGeometry y="52" width="300" height="26" as="geometry" />
        </mxCell>
        <mxCell id="nKCrA-lN9NPPw2SbhEwQ-47" value="-Empleados: Arraylist &lt;Empleado&gt;" style="text;align=left;verticalAlign=top;spacingLeft=4;spacingRight=4;overflow=hidden;rotatable=0;points=[[0,0.5],[1,0.5]];portConstraint=eastwest;" parent="nKCrA-lN9NPPw2SbhEwQ-29" vertex="1">
          <mxGeometry y="78" width="300" height="26" as="geometry" />
        </mxCell>
        <mxCell id="aHk7hMUjukKhdwWyUS7x-63" value="-Propietarios: Arraylist &lt;Propietario&gt;" style="text;align=left;verticalAlign=top;spacingLeft=4;spacingRight=4;overflow=hidden;rotatable=0;points=[[0,0.5],[1,0.5]];portConstraint=eastwest;" parent="nKCrA-lN9NPPw2SbhEwQ-29" vertex="1">
          <mxGeometry y="104" width="300" height="26" as="geometry" />
        </mxCell>
        <mxCell id="aHk7hMUjukKhdwWyUS7x-2" value="-Comprador: Arraylist &lt;Clientes&gt;" style="text;align=left;verticalAlign=top;spacingLeft=4;spacingRight=4;overflow=hidden;rotatable=0;points=[[0,0.5],[1,0.5]];portConstraint=eastwest;" parent="nKCrA-lN9NPPw2SbhEwQ-29" vertex="1">
          <mxGeometry y="130" width="300" height="26" as="geometry" />
        </mxCell>
        <mxCell id="aHk7hMUjukKhdwWyUS7x-162" value="-Comprador: Arraylist &lt;Clientes&gt;" style="text;align=left;verticalAlign=top;spacingLeft=4;spacingRight=4;overflow=hidden;rotatable=0;points=[[0,0.5],[1,0.5]];portConstraint=eastwest;" parent="nKCrA-lN9NPPw2SbhEwQ-29" vertex="1">
          <mxGeometry y="156" width="300" height="26" as="geometry" />
        </mxCell>
        <mxCell id="nKCrA-lN9NPPw2SbhEwQ-39" value="compra" style="endArrow=block;endFill=1;html=1;edgeStyle=orthogonalEdgeStyle;align=left;verticalAlign=top;rounded=0;entryX=0.389;entryY=0.012;entryDx=0;entryDy=0;entryPerimeter=0;exitX=1;exitY=0.154;exitDx=0;exitDy=0;exitPerimeter=0;" parent="WIyWlLk6GJQsqaUBKTNV-1" source="aHk7hMUjukKhdwWyUS7x-2" edge="1">
          <mxGeometry x="-0.0842" y="-7" relative="1" as="geometry">
            <mxPoint x="200" y="150" as="sourcePoint" />
            <mxPoint x="225.02999999999975" y="362.71200000000044" as="targetPoint" />
            <mxPoint as="offset" />
            <Array as="points">
              <mxPoint x="225" y="150" />
            </Array>
          </mxGeometry>
        </mxCell>
        <mxCell id="nKCrA-lN9NPPw2SbhEwQ-40" value="*" style="edgeLabel;resizable=0;html=1;align=left;verticalAlign=bottom;" parent="nKCrA-lN9NPPw2SbhEwQ-39" connectable="0" vertex="1">
          <mxGeometry x="-1" relative="1" as="geometry">
            <mxPoint x="-170" y="40" as="offset" />
          </mxGeometry>
        </mxCell>
        <mxCell id="7eufnPfeV6qqJb5Z0_9X-3" value="Los medio de pagos que dependen del comprador" style="shape=callout;whiteSpace=wrap;html=1;perimeter=calloutPerimeter;fillColor=#fff2cc;strokeColor=#d6b656;position2=0;size=45;position=0.06;base=29;" parent="WIyWlLk6GJQsqaUBKTNV-1" vertex="1">
          <mxGeometry x="430" y="833.75" width="180" height="92.5" as="geometry" />
        </mxCell>
        <mxCell id="7eufnPfeV6qqJb5Z0_9X-4" value="De acuerdo a la disponilidad se consulta en el inventario" style="shape=callout;whiteSpace=wrap;html=1;perimeter=calloutPerimeter;fillColor=#fff2cc;strokeColor=#d6b656;" parent="WIyWlLk6GJQsqaUBKTNV-1" vertex="1">
          <mxGeometry x="-820" y="210" width="130" height="107" as="geometry" />
        </mxCell>
        <mxCell id="7eufnPfeV6qqJb5Z0_9X-5" value="La clase consignacion permite darle la pieza a la galeria para su compra o subasta. " style="shape=callout;whiteSpace=wrap;html=1;perimeter=calloutPerimeter;fillColor=#fff2cc;strokeColor=#d6b656;position2=0;size=29;position=0.08;" parent="WIyWlLk6GJQsqaUBKTNV-1" vertex="1">
          <mxGeometry x="-40" y="660" width="130" height="108.5" as="geometry" />
        </mxCell>
        <mxCell id="7eufnPfeV6qqJb5Z0_9X-11" value="El administrador se encarga de manejar la informacion del inventario de piezas" style="shape=callout;whiteSpace=wrap;html=1;perimeter=calloutPerimeter;fillColor=#fff2cc;strokeColor=#d6b656;" parent="WIyWlLk6GJQsqaUBKTNV-1" vertex="1">
          <mxGeometry x="-860" y="-20" width="120" height="110" as="geometry" />
        </mxCell>
        <mxCell id="aHk7hMUjukKhdwWyUS7x-17" value="1" style="edgeLabel;resizable=0;html=1;align=left;verticalAlign=bottom;" parent="WIyWlLk6GJQsqaUBKTNV-1" connectable="0" vertex="1">
          <mxGeometry x="-330" y="455" as="geometry">
            <mxPoint x="-488" y="135" as="offset" />
          </mxGeometry>
        </mxCell>
        <mxCell id="aHk7hMUjukKhdwWyUS7x-18" value="1..*" style="edgeLabel;resizable=0;html=1;align=left;verticalAlign=bottom;" parent="WIyWlLk6GJQsqaUBKTNV-1" connectable="0" vertex="1">
          <mxGeometry x="-690" y="630" as="geometry">
            <mxPoint x="5" y="-3" as="offset" />
          </mxGeometry>
        </mxCell>
        <mxCell id="aHk7hMUjukKhdwWyUS7x-23" value="1..*" style="edgeLabel;resizable=0;html=1;align=left;verticalAlign=bottom;" parent="WIyWlLk6GJQsqaUBKTNV-1" connectable="0" vertex="1">
          <mxGeometry x="-340" y="520" as="geometry">
            <mxPoint x="74" y="-4" as="offset" />
          </mxGeometry>
        </mxCell>
        <mxCell id="aHk7hMUjukKhdwWyUS7x-26" value="" style="endArrow=classic;startArrow=classic;html=1;rounded=0;exitX=0;exitY=0.154;exitDx=0;exitDy=0;exitPerimeter=0;" parent="WIyWlLk6GJQsqaUBKTNV-1" source="aHk7hMUjukKhdwWyUS7x-11" edge="1">
          <mxGeometry width="50" height="50" relative="1" as="geometry">
            <mxPoint x="-690" y="620" as="sourcePoint" />
            <mxPoint x="-800" y="570" as="targetPoint" />
            <Array as="points">
              <mxPoint x="-800" y="600" />
            </Array>
          </mxGeometry>
        </mxCell>
        <mxCell id="aHk7hMUjukKhdwWyUS7x-27" value="" style="endArrow=classic;html=1;rounded=0;" parent="WIyWlLk6GJQsqaUBKTNV-1" edge="1">
          <mxGeometry width="50" height="50" relative="1" as="geometry">
            <mxPoint x="-720" y="120" as="sourcePoint" />
            <mxPoint x="-880" y="390" as="targetPoint" />
            <Array as="points">
              <mxPoint x="-880" y="120" />
            </Array>
          </mxGeometry>
        </mxCell>
        <mxCell id="aHk7hMUjukKhdwWyUS7x-45" value="Consignacion" style="swimlane;fontStyle=2;align=center;verticalAlign=top;childLayout=stackLayout;horizontal=1;startSize=26;horizontalStack=0;resizeParent=1;resizeLast=0;collapsible=1;marginBottom=0;rounded=0;shadow=0;strokeWidth=1;" parent="WIyWlLk6GJQsqaUBKTNV-1" vertex="1">
          <mxGeometry x="-280" y="730" width="230" height="140" as="geometry">
            <mxRectangle x="230" y="140" width="160" height="26" as="alternateBounds" />
          </mxGeometry>
        </mxCell>
        <mxCell id="aHk7hMUjukKhdwWyUS7x-46" value="-pieza: &lt;Pieza&gt;" style="text;align=left;verticalAlign=top;spacingLeft=4;spacingRight=4;overflow=hidden;rotatable=0;points=[[0,0.5],[1,0.5]];portConstraint=eastwest;" parent="aHk7hMUjukKhdwWyUS7x-45" vertex="1">
          <mxGeometry y="26" width="230" height="26" as="geometry" />
        </mxCell>
        <mxCell id="aHk7hMUjukKhdwWyUS7x-47" value="-registroPiezas:  HashMap&lt;String, data&gt;" style="text;align=left;verticalAlign=top;spacingLeft=4;spacingRight=4;overflow=hidden;rotatable=0;points=[[0,0.5],[1,0.5]];portConstraint=eastwest;" parent="aHk7hMUjukKhdwWyUS7x-45" vertex="1">
          <mxGeometry y="52" width="230" height="28" as="geometry" />
        </mxCell>
        <mxCell id="aHk7hMUjukKhdwWyUS7x-49" value="-consignacion: &lt;Consignacion&gt;" style="text;align=left;verticalAlign=top;spacingLeft=4;spacingRight=4;overflow=hidden;rotatable=0;points=[[0,0.5],[1,0.5]];portConstraint=eastwest;" parent="aHk7hMUjukKhdwWyUS7x-45" vertex="1">
          <mxGeometry y="80" width="230" height="26" as="geometry" />
        </mxCell>
        <mxCell id="aHk7hMUjukKhdwWyUS7x-50" value="" style="line;html=1;strokeWidth=1;align=left;verticalAlign=middle;spacingTop=-1;spacingLeft=3;spacingRight=3;rotatable=0;labelPosition=right;points=[];portConstraint=eastwest;" parent="aHk7hMUjukKhdwWyUS7x-45" vertex="1">
          <mxGeometry y="106" width="230" height="24" as="geometry" />
        </mxCell>
        <mxCell id="aHk7hMUjukKhdwWyUS7x-57" value="" style="endArrow=classic;html=1;rounded=0;entryX=1;entryY=0.308;entryDx=0;entryDy=0;exitX=0.003;exitY=0.231;exitDx=0;exitDy=0;exitPerimeter=0;entryPerimeter=0;" parent="WIyWlLk6GJQsqaUBKTNV-1" source="nKCrA-lN9NPPw2SbhEwQ-47" target="XEJke8gN8GgJqABwDWAg-69" edge="1">
          <mxGeometry width="50" height="50" relative="1" as="geometry">
            <mxPoint x="-190" y="100" as="sourcePoint" />
            <mxPoint x="-360" y="140" as="targetPoint" />
          </mxGeometry>
        </mxCell>
        <mxCell id="aHk7hMUjukKhdwWyUS7x-60" value="1" style="edgeLabel;resizable=0;html=1;align=left;verticalAlign=bottom;" parent="WIyWlLk6GJQsqaUBKTNV-1" connectable="0" vertex="1">
          <mxGeometry x="-40" y="365" as="geometry">
            <mxPoint x="-78" y="-238" as="offset" />
          </mxGeometry>
        </mxCell>
        <mxCell id="aHk7hMUjukKhdwWyUS7x-61" value="1..*" style="edgeLabel;resizable=0;html=1;align=left;verticalAlign=bottom;" parent="WIyWlLk6GJQsqaUBKTNV-1" connectable="0" vertex="1">
          <mxGeometry x="-595" y="420" as="geometry">
            <mxPoint x="43" y="-315" as="offset" />
          </mxGeometry>
        </mxCell>
        <mxCell id="aHk7hMUjukKhdwWyUS7x-62" value="1" style="edgeLabel;resizable=0;html=1;align=left;verticalAlign=bottom;" parent="WIyWlLk6GJQsqaUBKTNV-1" connectable="0" vertex="1">
          <mxGeometry x="-50" y="455" as="geometry">
            <mxPoint x="-78" y="-238" as="offset" />
          </mxGeometry>
        </mxCell>
        <mxCell id="aHk7hMUjukKhdwWyUS7x-65" value="Propietario" style="swimlane;fontStyle=2;align=center;verticalAlign=top;childLayout=stackLayout;horizontal=1;startSize=26;horizontalStack=0;resizeParent=1;resizeLast=0;collapsible=1;marginBottom=0;rounded=0;shadow=0;strokeWidth=1;" parent="WIyWlLk6GJQsqaUBKTNV-1" vertex="1">
          <mxGeometry x="-360" y="530" width="230" height="160" as="geometry">
            <mxRectangle x="230" y="140" width="160" height="26" as="alternateBounds" />
          </mxGeometry>
        </mxCell>
        <mxCell id="aHk7hMUjukKhdwWyUS7x-66" value="-pieza: &lt;Pieza&gt;" style="text;align=left;verticalAlign=top;spacingLeft=4;spacingRight=4;overflow=hidden;rotatable=0;points=[[0,0.5],[1,0.5]];portConstraint=eastwest;" parent="aHk7hMUjukKhdwWyUS7x-65" vertex="1">
          <mxGeometry y="26" width="230" height="26" as="geometry" />
        </mxCell>
        <mxCell id="aHk7hMUjukKhdwWyUS7x-67" value="-registroPiezas:  HashMap&lt;String, data&gt;" style="text;align=left;verticalAlign=top;spacingLeft=4;spacingRight=4;overflow=hidden;rotatable=0;points=[[0,0.5],[1,0.5]];portConstraint=eastwest;" parent="aHk7hMUjukKhdwWyUS7x-65" vertex="1">
          <mxGeometry y="52" width="230" height="28" as="geometry" />
        </mxCell>
        <mxCell id="aHk7hMUjukKhdwWyUS7x-68" value="-consignacion: &lt;Consignacion&gt;" style="text;align=left;verticalAlign=top;spacingLeft=4;spacingRight=4;overflow=hidden;rotatable=0;points=[[0,0.5],[1,0.5]];portConstraint=eastwest;" parent="aHk7hMUjukKhdwWyUS7x-65" vertex="1">
          <mxGeometry y="80" width="230" height="26" as="geometry" />
        </mxCell>
        <mxCell id="aHk7hMUjukKhdwWyUS7x-146" value="-verificacion: Boolean" style="text;align=left;verticalAlign=top;spacingLeft=4;spacingRight=4;overflow=hidden;rotatable=0;points=[[0,0.5],[1,0.5]];portConstraint=eastwest;" parent="aHk7hMUjukKhdwWyUS7x-65" vertex="1">
          <mxGeometry y="106" width="230" height="26" as="geometry" />
        </mxCell>
        <mxCell id="aHk7hMUjukKhdwWyUS7x-69" value="" style="line;html=1;strokeWidth=1;align=left;verticalAlign=middle;spacingTop=-1;spacingLeft=3;spacingRight=3;rotatable=0;labelPosition=right;points=[];portConstraint=eastwest;" parent="aHk7hMUjukKhdwWyUS7x-65" vertex="1">
          <mxGeometry y="132" width="230" height="24" as="geometry" />
        </mxCell>
        <mxCell id="aHk7hMUjukKhdwWyUS7x-71" value="" style="endArrow=classic;startArrow=classic;html=1;rounded=0;" parent="WIyWlLk6GJQsqaUBKTNV-1" edge="1">
          <mxGeometry width="50" height="50" relative="1" as="geometry">
            <mxPoint x="-470" y="606.25" as="sourcePoint" />
            <mxPoint x="-360" y="606" as="targetPoint" />
          </mxGeometry>
        </mxCell>
        <mxCell id="aHk7hMUjukKhdwWyUS7x-72" value="*" style="text;whiteSpace=wrap;html=1;" parent="WIyWlLk6GJQsqaUBKTNV-1" vertex="1">
          <mxGeometry x="-380" y="610" width="20" height="20" as="geometry" />
        </mxCell>
        <mxCell id="aHk7hMUjukKhdwWyUS7x-73" value="" style="endArrow=classic;html=1;rounded=0;exitX=0;exitY=0.5;exitDx=0;exitDy=0;" parent="WIyWlLk6GJQsqaUBKTNV-1" source="aHk7hMUjukKhdwWyUS7x-2" edge="1">
          <mxGeometry width="50" height="50" relative="1" as="geometry">
            <mxPoint x="-190" y="170" as="sourcePoint" />
            <mxPoint x="-240" y="530" as="targetPoint" />
            <Array as="points">
              <mxPoint x="-240" y="133" />
            </Array>
          </mxGeometry>
        </mxCell>
        <mxCell id="aHk7hMUjukKhdwWyUS7x-75" value="" style="endArrow=classic;startArrow=classic;html=1;rounded=0;exitX=-0.017;exitY=0.077;exitDx=0;exitDy=0;exitPerimeter=0;" parent="WIyWlLk6GJQsqaUBKTNV-1" source="aHk7hMUjukKhdwWyUS7x-46" edge="1">
          <mxGeometry width="50" height="50" relative="1" as="geometry">
            <mxPoint x="-840" y="852" as="sourcePoint" />
            <mxPoint x="-840" y="570" as="targetPoint" />
            <Array as="points">
              <mxPoint x="-840" y="760" />
            </Array>
          </mxGeometry>
        </mxCell>
        <mxCell id="aHk7hMUjukKhdwWyUS7x-78" value="" style="endArrow=classic;html=1;rounded=0;entryX=0.696;entryY=0.006;entryDx=0;entryDy=0;entryPerimeter=0;exitX=-0.011;exitY=0.965;exitDx=0;exitDy=0;exitPerimeter=0;" parent="WIyWlLk6GJQsqaUBKTNV-1" source="aHk7hMUjukKhdwWyUS7x-133" target="aHk7hMUjukKhdwWyUS7x-45" edge="1">
          <mxGeometry width="50" height="50" relative="1" as="geometry">
            <mxPoint x="110" y="530" as="sourcePoint" />
            <mxPoint x="-90" y="560" as="targetPoint" />
            <Array as="points">
              <mxPoint x="40" y="546" />
              <mxPoint x="40" y="640" />
              <mxPoint x="-120" y="640" />
            </Array>
          </mxGeometry>
        </mxCell>
        <mxCell id="aHk7hMUjukKhdwWyUS7x-80" value="" style="endArrow=block;endFill=1;html=1;edgeStyle=orthogonalEdgeStyle;align=left;verticalAlign=top;rounded=0;exitX=0.5;exitY=1;exitDx=0;exitDy=0;" parent="WIyWlLk6GJQsqaUBKTNV-1" source="aHk7hMUjukKhdwWyUS7x-129" target="aHk7hMUjukKhdwWyUS7x-82" edge="1">
          <mxGeometry x="0.7516" y="11" relative="1" as="geometry">
            <mxPoint x="255" y="586" as="sourcePoint" />
            <mxPoint x="100" y="524" as="targetPoint" />
            <mxPoint as="offset" />
          </mxGeometry>
        </mxCell>
        <mxCell id="aHk7hMUjukKhdwWyUS7x-82" value="Compra" style="swimlane;fontStyle=2;align=center;verticalAlign=top;childLayout=stackLayout;horizontal=1;startSize=26;horizontalStack=0;resizeParent=1;resizeLast=0;collapsible=1;marginBottom=0;rounded=0;shadow=0;strokeWidth=1;" parent="WIyWlLk6GJQsqaUBKTNV-1" vertex="1">
          <mxGeometry x="160" y="640" width="190" height="190" as="geometry">
            <mxRectangle x="230" y="140" width="160" height="26" as="alternateBounds" />
          </mxGeometry>
        </mxCell>
        <mxCell id="aHk7hMUjukKhdwWyUS7x-83" value="-piezasDisponibles: Arraylist &lt;piezasDis&gt;" style="text;align=left;verticalAlign=top;spacingLeft=4;spacingRight=4;overflow=hidden;rotatable=0;points=[[0,0.5],[1,0.5]];portConstraint=eastwest;" parent="aHk7hMUjukKhdwWyUS7x-82" vertex="1">
          <mxGeometry y="26" width="190" height="26" as="geometry" />
        </mxCell>
        <mxCell id="aHk7hMUjukKhdwWyUS7x-84" value="-Pieza: &lt;Pieza&gt;" style="text;align=left;verticalAlign=top;spacingLeft=4;spacingRight=4;overflow=hidden;rotatable=0;points=[[0,0.5],[1,0.5]];portConstraint=eastwest;rounded=0;shadow=0;html=0;" parent="aHk7hMUjukKhdwWyUS7x-82" vertex="1">
          <mxGeometry y="52" width="190" height="26" as="geometry" />
        </mxCell>
        <mxCell id="aHk7hMUjukKhdwWyUS7x-85" value="-valor: Integer" style="text;align=left;verticalAlign=top;spacingLeft=4;spacingRight=4;overflow=hidden;rotatable=0;points=[[0,0.5],[1,0.5]];portConstraint=eastwest;" parent="aHk7hMUjukKhdwWyUS7x-82" vertex="1">
          <mxGeometry y="78" width="190" height="26" as="geometry" />
        </mxCell>
        <mxCell id="aHk7hMUjukKhdwWyUS7x-86" value="-nacionalidad: String" style="text;align=left;verticalAlign=top;spacingLeft=4;spacingRight=4;overflow=hidden;rotatable=0;points=[[0,0.5],[1,0.5]];portConstraint=eastwest;" parent="aHk7hMUjukKhdwWyUS7x-82" vertex="1">
          <mxGeometry y="104" width="190" height="26" as="geometry" />
        </mxCell>
        <mxCell id="aHk7hMUjukKhdwWyUS7x-87" value="-documentoIdentidad: Image" style="text;align=left;verticalAlign=top;spacingLeft=4;spacingRight=4;overflow=hidden;rotatable=0;points=[[0,0.5],[1,0.5]];portConstraint=eastwest;" parent="aHk7hMUjukKhdwWyUS7x-82" vertex="1">
          <mxGeometry y="130" width="190" height="26" as="geometry" />
        </mxCell>
        <mxCell id="aHk7hMUjukKhdwWyUS7x-88" value="" style="line;html=1;strokeWidth=1;align=left;verticalAlign=middle;spacingTop=-1;spacingLeft=3;spacingRight=3;rotatable=0;labelPosition=right;points=[];portConstraint=eastwest;" parent="aHk7hMUjukKhdwWyUS7x-82" vertex="1">
          <mxGeometry y="156" width="190" height="8" as="geometry" />
        </mxCell>
        <mxCell id="aHk7hMUjukKhdwWyUS7x-90" value="" style="endArrow=classic;html=1;rounded=0;" parent="WIyWlLk6GJQsqaUBKTNV-1" edge="1">
          <mxGeometry width="50" height="50" relative="1" as="geometry">
            <mxPoint x="520" y="560" as="sourcePoint" />
            <mxPoint x="675" y="699" as="targetPoint" />
            <Array as="points">
              <mxPoint x="520" y="699" />
            </Array>
          </mxGeometry>
        </mxCell>
        <mxCell id="aHk7hMUjukKhdwWyUS7x-96" value="" style="endArrow=classic;html=1;rounded=0;exitX=1.006;exitY=1.055;exitDx=0;exitDy=0;exitPerimeter=0;" parent="WIyWlLk6GJQsqaUBKTNV-1" source="XEJke8gN8GgJqABwDWAg-70" edge="1">
          <mxGeometry width="50" height="50" relative="1" as="geometry">
            <mxPoint x="-150" y="300" as="sourcePoint" />
            <mxPoint x="-115" y="280" as="targetPoint" />
            <Array as="points">
              <mxPoint x="-300" y="119" />
              <mxPoint x="-300" y="280" />
            </Array>
          </mxGeometry>
        </mxCell>
        <mxCell id="aHk7hMUjukKhdwWyUS7x-97" value="Cuando se realiza la compra o subasta el adminstrador siempre debe verificar si el cliente o propietario es real" style="shape=callout;whiteSpace=wrap;html=1;perimeter=calloutPerimeter;fillColor=#fff2cc;strokeColor=#d6b656;position2=1;size=40;position=0.64;base=20;" parent="WIyWlLk6GJQsqaUBKTNV-1" vertex="1">
          <mxGeometry x="-500" y="130" width="190" height="102.5" as="geometry" />
        </mxCell>
        <mxCell id="aHk7hMUjukKhdwWyUS7x-98" value="" style="endArrow=classic;html=1;rounded=0;exitX=1;exitY=0.5;exitDx=0;exitDy=0;" parent="WIyWlLk6GJQsqaUBKTNV-1" source="aHk7hMUjukKhdwWyUS7x-147" edge="1">
          <mxGeometry width="50" height="50" relative="1" as="geometry">
            <mxPoint x="90" y="300" as="sourcePoint" />
            <mxPoint x="200" y="360" as="targetPoint" />
            <Array as="points">
              <mxPoint x="200" y="317" />
            </Array>
          </mxGeometry>
        </mxCell>
        <mxCell id="aHk7hMUjukKhdwWyUS7x-129" value="Compra y Subasta" style="swimlane;fontStyle=2;align=center;verticalAlign=top;childLayout=stackLayout;horizontal=1;startSize=26;horizontalStack=0;resizeParent=1;resizeLast=0;collapsible=1;marginBottom=0;rounded=0;shadow=0;strokeWidth=1;" parent="WIyWlLk6GJQsqaUBKTNV-1" vertex="1">
          <mxGeometry x="180" y="365" width="270" height="225" as="geometry">
            <mxRectangle x="230" y="140" width="160" height="26" as="alternateBounds" />
          </mxGeometry>
        </mxCell>
        <mxCell id="aHk7hMUjukKhdwWyUS7x-130" value="-piezasDisponibles: Arraylist &lt;piezasDis&gt;" style="text;align=left;verticalAlign=top;spacingLeft=4;spacingRight=4;overflow=hidden;rotatable=0;points=[[0,0.5],[1,0.5]];portConstraint=eastwest;" parent="aHk7hMUjukKhdwWyUS7x-129" vertex="1">
          <mxGeometry y="26" width="270" height="26" as="geometry" />
        </mxCell>
        <mxCell id="aHk7hMUjukKhdwWyUS7x-131" value="-clientesVerficados: Arraylist &lt;clientesVef&gt;" style="text;align=left;verticalAlign=top;spacingLeft=4;spacingRight=4;overflow=hidden;rotatable=0;points=[[0,0.5],[1,0.5]];portConstraint=eastwest;rounded=0;shadow=0;html=0;" parent="aHk7hMUjukKhdwWyUS7x-129" vertex="1">
          <mxGeometry y="52" width="270" height="26" as="geometry" />
        </mxCell>
        <mxCell id="aHk7hMUjukKhdwWyUS7x-134" value="-fechaHoraEntrega: Date" style="text;align=left;verticalAlign=top;spacingLeft=4;spacingRight=4;overflow=hidden;rotatable=0;points=[[0,0.5],[1,0.5]];portConstraint=eastwest;" parent="aHk7hMUjukKhdwWyUS7x-129" vertex="1">
          <mxGeometry y="78" width="270" height="26" as="geometry" />
        </mxCell>
        <mxCell id="aHk7hMUjukKhdwWyUS7x-132" value="-subasta: &lt;Subasta&gt;" style="text;align=left;verticalAlign=top;spacingLeft=4;spacingRight=4;overflow=hidden;rotatable=0;points=[[0,0.5],[1,0.5]];portConstraint=eastwest;" parent="aHk7hMUjukKhdwWyUS7x-129" vertex="1">
          <mxGeometry y="104" width="270" height="26" as="geometry" />
        </mxCell>
        <mxCell id="aHk7hMUjukKhdwWyUS7x-136" value="-compra: &lt;Compra&gt;" style="text;align=left;verticalAlign=top;spacingLeft=4;spacingRight=4;overflow=hidden;rotatable=0;points=[[0,0.5],[1,0.5]];portConstraint=eastwest;" parent="aHk7hMUjukKhdwWyUS7x-129" vertex="1">
          <mxGeometry y="130" width="270" height="26" as="geometry" />
        </mxCell>
        <mxCell id="aHk7hMUjukKhdwWyUS7x-133" value="-valoFijo: Boolean" style="text;align=left;verticalAlign=top;spacingLeft=4;spacingRight=4;overflow=hidden;rotatable=0;points=[[0,0.5],[1,0.5]];portConstraint=eastwest;" parent="aHk7hMUjukKhdwWyUS7x-129" vertex="1">
          <mxGeometry y="156" width="270" height="26" as="geometry" />
        </mxCell>
        <mxCell id="aHk7hMUjukKhdwWyUS7x-135" value="" style="line;html=1;strokeWidth=1;align=left;verticalAlign=middle;spacingTop=-1;spacingLeft=3;spacingRight=3;rotatable=0;labelPosition=right;points=[];portConstraint=eastwest;" parent="aHk7hMUjukKhdwWyUS7x-129" vertex="1">
          <mxGeometry y="182" width="270" height="8" as="geometry" />
        </mxCell>
        <mxCell id="aHk7hMUjukKhdwWyUS7x-138" value="" style="endArrow=classic;html=1;rounded=0;" parent="WIyWlLk6GJQsqaUBKTNV-1" edge="1">
          <mxGeometry width="50" height="50" relative="1" as="geometry">
            <mxPoint x="350" y="720" as="sourcePoint" />
            <mxPoint x="680" y="720" as="targetPoint" />
            <Array as="points" />
          </mxGeometry>
        </mxCell>
        <mxCell id="aHk7hMUjukKhdwWyUS7x-140" value="" style="endArrow=classic;html=1;rounded=0;entryX=0.174;entryY=0.013;entryDx=0;entryDy=0;entryPerimeter=0;" parent="WIyWlLk6GJQsqaUBKTNV-1" target="aHk7hMUjukKhdwWyUS7x-45" edge="1">
          <mxGeometry width="50" height="50" relative="1" as="geometry">
            <mxPoint x="-240" y="690" as="sourcePoint" />
            <mxPoint x="-300" y="590" as="targetPoint" />
          </mxGeometry>
        </mxCell>
        <mxCell id="aHk7hMUjukKhdwWyUS7x-141" value="1..*" style="text;whiteSpace=wrap;html=1;" parent="WIyWlLk6GJQsqaUBKTNV-1" vertex="1">
          <mxGeometry x="640" y="670" width="20" height="20" as="geometry" />
        </mxCell>
        <mxCell id="aHk7hMUjukKhdwWyUS7x-145" value="" style="endArrow=classic;html=1;rounded=0;exitX=0.87;exitY=-0.001;exitDx=0;exitDy=0;exitPerimeter=0;entryX=0;entryY=0.808;entryDx=0;entryDy=0;entryPerimeter=0;" parent="WIyWlLk6GJQsqaUBKTNV-1" source="aHk7hMUjukKhdwWyUS7x-65" target="aHk7hMUjukKhdwWyUS7x-132" edge="1">
          <mxGeometry width="50" height="50" relative="1" as="geometry">
            <mxPoint x="-200" y="490" as="sourcePoint" />
            <mxPoint x="120" y="490" as="targetPoint" />
            <Array as="points">
              <mxPoint x="-160" y="490" />
            </Array>
          </mxGeometry>
        </mxCell>
        <mxCell id="aHk7hMUjukKhdwWyUS7x-148" value="" style="endArrow=classic;startArrow=classic;html=1;rounded=0;entryX=0;entryY=0.615;entryDx=0;entryDy=0;entryPerimeter=0;exitX=0.688;exitY=-0.009;exitDx=0;exitDy=0;exitPerimeter=0;" parent="WIyWlLk6GJQsqaUBKTNV-1" source="aHk7hMUjukKhdwWyUS7x-65" target="aHk7hMUjukKhdwWyUS7x-147" edge="1">
          <mxGeometry width="50" height="50" relative="1" as="geometry">
            <mxPoint x="-210" y="530" as="sourcePoint" />
            <mxPoint x="-110" y="310" as="targetPoint" />
            <Array as="points">
              <mxPoint x="-202" y="320" />
            </Array>
          </mxGeometry>
        </mxCell>
        <mxCell id="aHk7hMUjukKhdwWyUS7x-150" value="1..*" style="text;whiteSpace=wrap;html=1;" parent="WIyWlLk6GJQsqaUBKTNV-1" vertex="1">
          <mxGeometry x="370" y="690" width="20" height="20" as="geometry" />
        </mxCell>
        <mxCell id="aHk7hMUjukKhdwWyUS7x-151" value="1...*" style="text;whiteSpace=wrap;html=1;" parent="WIyWlLk6GJQsqaUBKTNV-1" vertex="1">
          <mxGeometry x="530" y="555" width="20" height="20" as="geometry" />
        </mxCell>
        <mxCell id="aHk7hMUjukKhdwWyUS7x-157" value="" style="endArrow=classic;html=1;rounded=0;exitX=1;exitY=0.5;exitDx=0;exitDy=0;entryX=0.158;entryY=0;entryDx=0;entryDy=0;entryPerimeter=0;" parent="WIyWlLk6GJQsqaUBKTNV-1" source="XEJke8gN8GgJqABwDWAg-74" target="DRnetqcQ-tTifSEXMpZS-11" edge="1">
          <mxGeometry width="50" height="50" relative="1" as="geometry">
            <mxPoint x="360" y="480" as="sourcePoint" />
            <mxPoint x="410" y="430" as="targetPoint" />
            <Array as="points">
              <mxPoint x="120" y="343" />
            </Array>
          </mxGeometry>
        </mxCell>
        <mxCell id="aHk7hMUjukKhdwWyUS7x-158" value="" style="endArrow=classic;html=1;rounded=0;" parent="WIyWlLk6GJQsqaUBKTNV-1" edge="1">
          <mxGeometry width="50" height="50" relative="1" as="geometry">
            <mxPoint x="280" y="950" as="sourcePoint" />
            <mxPoint x="800" y="810" as="targetPoint" />
            <Array as="points">
              <mxPoint x="800" y="950" />
            </Array>
          </mxGeometry>
        </mxCell>
        <mxCell id="aHk7hMUjukKhdwWyUS7x-159" value="1..*" style="text;whiteSpace=wrap;html=1;" parent="WIyWlLk6GJQsqaUBKTNV-1" vertex="1">
          <mxGeometry x="770" y="813.75" width="20" height="20" as="geometry" />
        </mxCell>
        <mxCell id="aHk7hMUjukKhdwWyUS7x-160" value="1" style="edgeLabel;resizable=0;html=1;align=left;verticalAlign=bottom;" parent="WIyWlLk6GJQsqaUBKTNV-1" connectable="0" vertex="1">
          <mxGeometry x="160.00000000000057" y="454.9979999999992" as="geometry">
            <mxPoint x="134" y="481" as="offset" />
          </mxGeometry>
        </mxCell>
        <mxCell id="aHk7hMUjukKhdwWyUS7x-161" value="" style="endArrow=classic;html=1;rounded=0;entryX=1.008;entryY=0.102;entryDx=0;entryDy=0;entryPerimeter=0;" parent="WIyWlLk6GJQsqaUBKTNV-1" target="XEJke8gN8GgJqABwDWAg-73" edge="1">
          <mxGeometry width="50" height="50" relative="1" as="geometry">
            <mxPoint x="160" y="210" as="sourcePoint" />
            <mxPoint x="420" y="350" as="targetPoint" />
            <Array as="points">
              <mxPoint x="160" y="281" />
            </Array>
          </mxGeometry>
        </mxCell>
        <mxCell id="cDYdn4wqAu1XKMcaIMJM-1" value="Empleado" style="swimlane;fontStyle=2;align=center;verticalAlign=top;childLayout=stackLayout;horizontal=1;startSize=26;horizontalStack=0;resizeParent=1;resizeLast=0;collapsible=1;marginBottom=0;rounded=0;shadow=0;strokeWidth=1;" parent="WIyWlLk6GJQsqaUBKTNV-1" vertex="1">
          <mxGeometry x="680" y="80" width="190" height="170" as="geometry">
            <mxRectangle x="230" y="140" width="160" height="26" as="alternateBounds" />
          </mxGeometry>
        </mxCell>
        <mxCell id="cDYdn4wqAu1XKMcaIMJM-2" value="-nombre: int" style="text;align=left;verticalAlign=top;spacingLeft=4;spacingRight=4;overflow=hidden;rotatable=0;points=[[0,0.5],[1,0.5]];portConstraint=eastwest;" parent="cDYdn4wqAu1XKMcaIMJM-1" vertex="1">
          <mxGeometry y="26" width="190" height="26" as="geometry" />
        </mxCell>
        <mxCell id="i_F0MepqRwkzBUagzpRc-2" value="-id: String" style="text;align=left;verticalAlign=top;spacingLeft=4;spacingRight=4;overflow=hidden;rotatable=0;points=[[0,0.5],[1,0.5]];portConstraint=eastwest;" vertex="1" parent="cDYdn4wqAu1XKMcaIMJM-1">
          <mxGeometry y="52" width="190" height="26" as="geometry" />
        </mxCell>
        <mxCell id="cDYdn4wqAu1XKMcaIMJM-3" value="-rol: String" style="text;align=left;verticalAlign=top;spacingLeft=4;spacingRight=4;overflow=hidden;rotatable=0;points=[[0,0.5],[1,0.5]];portConstraint=eastwest;" parent="cDYdn4wqAu1XKMcaIMJM-1" vertex="1">
          <mxGeometry y="78" width="190" height="26" as="geometry" />
        </mxCell>
        <mxCell id="cDYdn4wqAu1XKMcaIMJM-4" value="-valorMaxCompras: Integer" style="text;align=left;verticalAlign=top;spacingLeft=4;spacingRight=4;overflow=hidden;rotatable=0;points=[[0,0.5],[1,0.5]];portConstraint=eastwest;" parent="cDYdn4wqAu1XKMcaIMJM-1" vertex="1">
          <mxGeometry y="104" width="190" height="26" as="geometry" />
        </mxCell>
        <mxCell id="cDYdn4wqAu1XKMcaIMJM-5" value="-pago: &lt;Pagos&gt;" style="text;align=left;verticalAlign=top;spacingLeft=4;spacingRight=4;overflow=hidden;rotatable=0;points=[[0,0.5],[1,0.5]];portConstraint=eastwest;" parent="cDYdn4wqAu1XKMcaIMJM-1" vertex="1">
          <mxGeometry y="130" width="190" height="26" as="geometry" />
        </mxCell>
        <mxCell id="cDYdn4wqAu1XKMcaIMJM-6" value="" style="line;html=1;strokeWidth=1;align=left;verticalAlign=middle;spacingTop=-1;spacingLeft=3;spacingRight=3;rotatable=0;labelPosition=right;points=[];portConstraint=eastwest;" parent="cDYdn4wqAu1XKMcaIMJM-1" vertex="1">
          <mxGeometry y="156" width="190" height="4" as="geometry" />
        </mxCell>
        <mxCell id="cDYdn4wqAu1XKMcaIMJM-8" value="" style="endArrow=classic;html=1;rounded=0;" parent="WIyWlLk6GJQsqaUBKTNV-1" edge="1">
          <mxGeometry width="50" height="50" relative="1" as="geometry">
            <mxPoint x="760" y="250" as="sourcePoint" />
            <mxPoint x="760" y="657" as="targetPoint" />
          </mxGeometry>
        </mxCell>
        <mxCell id="cDYdn4wqAu1XKMcaIMJM-9" value="" style="endArrow=classic;html=1;rounded=0;entryX=0;entryY=0.5;entryDx=0;entryDy=0;" parent="WIyWlLk6GJQsqaUBKTNV-1" target="cDYdn4wqAu1XKMcaIMJM-2" edge="1">
          <mxGeometry width="50" height="50" relative="1" as="geometry">
            <mxPoint x="200" y="119" as="sourcePoint" />
            <mxPoint x="680" y="150" as="targetPoint" />
          </mxGeometry>
        </mxCell>
        <mxCell id="i_F0MepqRwkzBUagzpRc-0" value="1..*" style="edgeLabel;resizable=0;html=1;align=left;verticalAlign=bottom;" connectable="0" vertex="1" parent="WIyWlLk6GJQsqaUBKTNV-1">
          <mxGeometry x="-680" y="640" as="geometry">
            <mxPoint x="1336" y="-492" as="offset" />
          </mxGeometry>
        </mxCell>
        <mxCell id="i_F0MepqRwkzBUagzpRc-1" value="1...*" style="edgeLabel;resizable=0;html=1;align=left;verticalAlign=bottom;" connectable="0" vertex="1" parent="WIyWlLk6GJQsqaUBKTNV-1">
          <mxGeometry x="-690" y="660" as="geometry">
            <mxPoint x="1467" y="-14" as="offset" />
          </mxGeometry>
        </mxCell>
        <mxCell id="i_F0MepqRwkzBUagzpRc-3" value="1" style="edgeLabel;resizable=0;html=1;align=left;verticalAlign=bottom;" connectable="0" vertex="1" parent="WIyWlLk6GJQsqaUBKTNV-1">
          <mxGeometry x="-800" y="400.0000000000009" as="geometry">
            <mxPoint x="-73" y="196" as="offset" />
          </mxGeometry>
        </mxCell>
        <mxCell id="i_F0MepqRwkzBUagzpRc-5" value="*" style="edgeLabel;resizable=0;html=1;align=left;verticalAlign=bottom;" connectable="0" vertex="1" parent="WIyWlLk6GJQsqaUBKTNV-1">
          <mxGeometry x="-320" y="790" as="geometry">
            <mxPoint x="5" y="-3" as="offset" />
          </mxGeometry>
        </mxCell>
        <mxCell id="i_F0MepqRwkzBUagzpRc-7" value="1..*" style="text;whiteSpace=wrap;html=1;" vertex="1" parent="WIyWlLk6GJQsqaUBKTNV-1">
          <mxGeometry x="650" y="725" width="20" height="20" as="geometry" />
        </mxCell>
        <mxCell id="i_F0MepqRwkzBUagzpRc-8" value="1...*" style="text;whiteSpace=wrap;html=1;" vertex="1" parent="WIyWlLk6GJQsqaUBKTNV-1">
          <mxGeometry x="90" y="360" width="20" height="20" as="geometry" />
        </mxCell>
        <mxCell id="i_F0MepqRwkzBUagzpRc-9" value="1" style="edgeLabel;resizable=0;html=1;align=left;verticalAlign=bottom;" connectable="0" vertex="1" parent="WIyWlLk6GJQsqaUBKTNV-1">
          <mxGeometry x="-300" y="800" as="geometry">
            <mxPoint x="400" y="57" as="offset" />
          </mxGeometry>
        </mxCell>
        <mxCell id="i_F0MepqRwkzBUagzpRc-10" value="El propietario tambien puede ser comprador y viceversa" style="shape=callout;whiteSpace=wrap;html=1;perimeter=calloutPerimeter;fillColor=#fff2cc;strokeColor=#d6b656;position2=1;size=40;position=0.64;base=20;" vertex="1" parent="WIyWlLk6GJQsqaUBKTNV-1">
          <mxGeometry x="-390" y="428.75" width="120" height="102.5" as="geometry" />
        </mxCell>
        <mxCell id="i_F0MepqRwkzBUagzpRc-11" value="El empleado puede hace el rol de cajero" style="shape=callout;whiteSpace=wrap;html=1;perimeter=calloutPerimeter;fillColor=#fff2cc;strokeColor=#d6b656;position2=0;size=50;position=0.11;base=39;" vertex="1" parent="WIyWlLk6GJQsqaUBKTNV-1">
          <mxGeometry x="770" y="290" width="140" height="110" as="geometry" />
        </mxCell>
      </root>
    </mxGraphModel>
  </diagram>
</mxfile>
